<svg version="1.1" id="Layer_1" xmlns="http://www.w3.org/2000/svg" xmlns:xlink="http://www.w3.org/1999/xlink" x="0px" y="0px"
	 width="100%" viewBox="0 0 512 512" enable-background="new 0 0 512 512" xml:space="preserve">
<path fill="#D43900" opacity="1.000000" stroke="none" 
	d="
M513.000000,102.000000 
	C513.000000,205.354767 513.000000,308.709534 512.644409,412.709839 
	C504.704041,459.940338 479.003906,491.620911 434.382202,507.440063 
	C427.170776,509.996613 419.472992,511.181213 412.000000,513.000000 
	C308.645233,513.000000 205.290466,513.000000 101.289009,512.645142 
	C50.568359,504.478638 14.378724,471.341949 3.496244,423.356079 
	C2.710970,419.893433 1.834222,416.451538 1.000002,413.000000 
	C1.000000,309.311890 1.000000,205.623810 1.353146,101.286118 
	C9.305256,50.797653 42.664551,14.365794 90.641953,3.491662 
	C94.104980,2.706763 97.547791,1.832639 101.000000,1.000000 
	C204.354767,1.000000 307.709534,1.000000 411.721619,1.356704 
	C460.641388,7.293310 499.363983,42.109875 510.213806,89.682167 
	C511.149841,93.786446 512.071594,97.893982 513.000000,102.000000 
M375.212494,188.286102 
	C403.137939,215.662766 431.063385,243.039429 458.169800,269.613159 
	C464.487213,263.819458 470.344482,258.447754 476.412445,252.882797 
	C439.665894,216.918320 403.175110,181.204147 367.813507,146.595139 
	C361.411041,152.484802 355.596191,157.833893 350.803925,162.242310 
	C358.785675,170.771530 366.747894,179.279846 375.212494,188.286102 
M161.904648,230.588425 
	C182.942474,251.198807 203.980286,271.809174 224.140137,291.559418 
	C230.496109,285.793457 236.386139,280.450226 242.500671,274.903320 
	C205.650803,238.915039 169.129913,203.248032 133.685699,168.632507 
	C127.392326,174.438843 121.582626,179.798950 115.545792,185.368607 
	C130.878250,200.331436 146.133453,215.218872 161.904648,230.588425 
M416.280640,263.220306 
	C388.400604,236.028229 360.520569,208.836166 333.559113,182.539993 
	C327.350952,188.223846 321.510529,193.570984 315.391754,199.172974 
	C352.066437,235.034805 388.570251,270.729584 424.057922,305.430725 
	C430.424316,299.538635 436.252930,294.144226 440.960052,289.787781 
	C432.861664,281.055634 424.821960,272.386719 416.280640,263.220306 
M144.332581,248.171982 
	C129.146530,233.341354 113.960487,218.510742 99.382240,204.273682 
	C93.200134,209.874115 87.251526,215.263016 81.070633,220.862350 
	C118.116234,257.084412 154.604614,292.761658 189.980835,327.351471 
	C196.396500,321.421722 202.223816,316.035736 208.125229,310.581299 
	C186.982346,289.892731 165.912704,269.275787 144.332581,248.171982 
M305.282013,223.211792 
	C303.348083,220.742752 301.414154,218.273727 300.293213,216.842606 
	C293.387634,223.344650 287.583862,228.809311 281.635071,234.410477 
	C318.134003,270.103271 354.528412,305.693817 389.874176,340.258850 
	C396.145782,334.462341 402.055023,329.000702 408.081024,323.431183 
	C373.966827,290.175659 339.876221,256.943176 305.282013,223.211792 
M112.518639,319.981323 
	C127.381264,334.455231 142.243881,348.929108 156.090042,362.413147 
	C162.430786,356.540314 168.255463,351.145508 174.217529,345.623413 
	C137.575165,309.839844 101.042274,274.163147 65.229866,239.190048 
	C58.861488,244.819000 52.980591,250.017059 46.769672,255.506836 
	C69.009331,277.311890 90.514130,298.396484 112.518639,319.981323 
M269.944153,207.346298 
	C273.772400,203.585907 277.617401,199.842377 281.425415,196.061615 
	C289.427063,188.117249 297.294495,180.033798 305.424316,172.223236 
	C320.587097,157.655945 335.897858,143.242661 351.481171,128.448013 
	C346.523529,123.327873 341.656158,118.869827 337.516205,113.815941 
	C334.956909,110.691605 333.661530,110.540283 330.875702,113.466972 
	C323.587067,121.124031 316.059723,128.563644 308.432770,135.887054 
	C287.654541,155.838272 266.775513,175.684479 245.936844,195.572769 
	C239.024689,202.169708 232.039963,208.694656 225.309372,215.471954 
	C224.584747,216.201645 224.728256,218.947723 225.512848,219.825531 
	C229.247482,224.003937 233.471329,227.742035 237.263397,231.873337 
	C239.611298,234.431244 241.508041,235.146118 244.196136,232.358658 
	C249.555511,226.801102 255.039154,221.360031 260.575256,215.977585 
	C263.447388,213.185150 266.541107,210.620667 269.944153,207.346298 
M228.508957,324.996735 
	C210.098999,343.003906 191.689041,361.011078 172.825226,379.462189 
	C178.305817,385.274475 183.991852,391.304596 189.658951,397.314667 
	C226.719193,361.487122 263.350342,326.074371 301.101349,289.579041 
	C294.901733,283.835938 288.933289,278.306946 283.088013,272.892090 
	C264.864929,290.276428 246.944214,307.372284 228.508957,324.996735 
M270.955566,65.561234 
	C274.101471,62.610279 277.247375,59.659325 281.052704,56.089813 
	C274.884552,49.935783 269.201202,44.265457 263.327301,38.405006 
	C226.005859,74.497368 189.180267,110.110207 152.674454,145.413803 
	C158.247314,151.310852 163.690735,157.070892 169.404831,163.117386 
	C171.034210,161.799927 172.928375,160.517242 174.526550,158.935486 
	C184.432571,149.131210 194.156006,139.140015 204.161728,129.439529 
	C218.122406,115.904739 232.285385,102.578766 246.346313,89.147224 
	C254.388809,81.464676 262.400574,73.749947 270.955566,65.561234 
M330.024933,320.538574 
	C325.804443,316.829163 321.583923,313.119751 317.334839,309.385223 
	C281.592651,343.924957 244.809311,379.470764 207.580215,415.447357 
	C212.990509,420.982849 218.319183,426.496857 223.785599,431.870789 
	C224.106964,432.186707 225.767654,431.627716 226.417160,431.044189 
	C231.007385,426.920105 235.585678,422.774658 239.997147,418.461517 
	C247.463638,411.161591 254.700775,403.625397 262.223480,396.385040 
	C272.018829,386.957397 282.063507,377.789032 291.877991,368.380890 
	C299.061249,361.494965 305.974854,354.328125 313.139954,347.422760 
	C320.475494,340.353088 327.970886,333.449341 335.376282,326.491791 
	C333.461487,324.326935 332.006653,322.682098 330.024933,320.538574 
M211.489960,193.001343 
	C212.136185,192.071350 212.648117,191.001862 213.448166,190.231644 
	C237.629044,166.952530 261.844208,143.709030 286.035828,120.441032 
	C289.079803,117.513290 291.974091,114.429718 295.023468,111.507851 
	C301.144562,105.642723 307.379364,99.894432 313.402374,93.931389 
	C314.054413,93.285835 314.185944,91.013069 313.603699,90.395203 
	C308.623260,85.109924 303.422333,80.032440 298.041260,74.646515 
	C261.037598,110.455826 224.231308,146.074142 186.858261,182.240936 
	C191.722809,186.595947 196.344589,189.897446 199.880768,194.110214 
	C204.340958,199.423782 204.246124,199.750992 208.850250,194.715576 
	C209.366776,194.150650 210.247314,193.918549 211.489960,193.001343 
M250.957077,444.560394 
	C250.480240,445.024719 250.036392,445.529694 249.521561,445.947144 
	C243.408707,450.903351 243.435516,452.537323 249.227554,457.780182 
	C252.579849,460.814636 255.556961,464.267426 258.953857,467.245758 
	C259.749359,467.943268 261.828552,467.978851 262.841919,467.434418 
	C264.297394,466.652435 265.282257,465.023285 266.528015,463.817780 
	C277.876862,452.836700 289.266663,441.897888 300.589630,430.890228 
	C314.912079,416.966614 329.173737,402.980530 343.484558,389.044922 
	C346.300964,386.302338 349.334167,383.776154 352.071716,380.959961 
	C358.327118,374.524902 364.461426,367.972107 370.015411,362.129333 
	C364.885071,356.493958 359.501862,350.580780 354.104126,344.651642 
	C319.618164,378.039551 285.538574,411.033997 250.957077,444.560394 
z"/>
<path fill="#FFFEFD" opacity="1.000000" stroke="none" 
	d="
M513.000000,101.531342 
	C512.071594,97.893982 511.149841,93.786446 510.213806,89.682167 
	C499.363983,42.109875 460.641388,7.293310 412.189484,1.356704 
	C445.593597,1.000000 479.187225,1.000000 513.000000,1.000000 
	C513.000000,34.353909 513.000000,67.708298 513.000000,101.531342 
z"/>
<path fill="#FFFEFD" opacity="1.000000" stroke="none" 
	d="
M412.468658,513.000000 
	C419.472992,511.181213 427.170776,509.996613 434.382202,507.440063 
	C479.003906,491.620911 504.704041,459.940338 512.644409,413.177704 
	C513.000000,446.260620 513.000000,479.521240 513.000000,513.000000 
	C479.646088,513.000000 446.291718,513.000000 412.468658,513.000000 
z"/>
<path fill="#FFFEFD" opacity="1.000000" stroke="none" 
	d="
M100.531342,1.000000 
	C97.547791,1.832639 94.104980,2.706763 90.641953,3.491662 
	C42.664551,14.365794 9.305256,50.797653 1.353146,100.818260 
	C1.000000,67.739731 1.000000,34.479462 1.000000,1.000000 
	C34.020573,1.000000 67.041626,1.000000 100.531342,1.000000 
z"/>
<path fill="#FFFEFD" opacity="1.000000" stroke="none" 
	d="
M1.000002,413.468658 
	C1.834222,416.451538 2.710970,419.893433 3.496244,423.356079 
	C14.378724,471.341949 50.568359,504.478638 100.821152,512.645142 
	C67.739731,513.000000 34.479465,513.000000 1.000000,513.000000 
	C1.000000,479.979431 1.000000,446.958374 1.000002,413.468658 
z"/>
<path fill="#FEFDFC" opacity="1.000000" stroke="none" 
	d="
M374.961304,188.037140 
	C366.747894,179.279846 358.785675,170.771530 350.803925,162.242310 
	C355.596191,157.833893 361.411041,152.484802 367.813507,146.595139 
	C403.175110,181.204147 439.665894,216.918320 476.412445,252.882797 
	C470.344482,258.447754 464.487213,263.819458 458.169800,269.613159 
	C431.063385,243.039429 403.137939,215.662766 374.961304,188.037140 
z"/>
<path fill="#FEFCFB" opacity="1.000000" stroke="none" 
	d="
M161.646652,230.347351 
	C146.133453,215.218872 130.878250,200.331436 115.545792,185.368607 
	C121.582626,179.798950 127.392326,174.438843 133.685699,168.632507 
	C169.129913,203.248032 205.650803,238.915039 242.500671,274.903320 
	C236.386139,280.450226 230.496109,285.793457 224.140137,291.559418 
	C203.980286,271.809174 182.942474,251.198807 161.646652,230.347351 
z"/>
<path fill="#FEFCFC" opacity="1.000000" stroke="none" 
	d="
M416.531433,263.469055 
	C424.821960,272.386719 432.861664,281.055634 440.960052,289.787781 
	C436.252930,294.144226 430.424316,299.538635 424.057922,305.430725 
	C388.570251,270.729584 352.066437,235.034805 315.391754,199.172974 
	C321.510529,193.570984 327.350952,188.223846 333.559113,182.539993 
	C360.520569,208.836166 388.400604,236.028229 416.531433,263.469055 
z"/>
<path fill="#FEFCFC" opacity="1.000000" stroke="none" 
	d="
M144.587814,248.415421 
	C165.912704,269.275787 186.982346,289.892731 208.125229,310.581299 
	C202.223816,316.035736 196.396500,321.421722 189.980835,327.351471 
	C154.604614,292.761658 118.116234,257.084412 81.070633,220.862350 
	C87.251526,215.263016 93.200134,209.874115 99.382240,204.273682 
	C113.960487,218.510742 129.146530,233.341354 144.587814,248.415421 
z"/>
<path fill="#FEFCFC" opacity="1.000000" stroke="none" 
	d="
M305.533813,223.461243 
	C339.876221,256.943176 373.966827,290.175659 408.081024,323.431183 
	C402.055023,329.000702 396.145782,334.462341 389.874176,340.258850 
	C354.528412,305.693817 318.134003,270.103271 281.635071,234.410477 
	C287.583862,228.809311 293.387634,223.344650 300.293213,216.842606 
	C301.414154,218.273727 303.348083,220.742752 305.533813,223.461243 
z"/>
<path fill="#FEFCFC" opacity="1.000000" stroke="none" 
	d="
M112.268784,319.731201 
	C90.514130,298.396484 69.009331,277.311890 46.769672,255.506836 
	C52.980591,250.017059 58.861488,244.819000 65.229866,239.190048 
	C101.042274,274.163147 137.575165,309.839844 174.217529,345.623413 
	C168.255463,351.145508 162.430786,356.540314 156.090042,362.413147 
	C142.243881,348.929108 127.381264,334.455231 112.268784,319.731201 
z"/>
<path fill="#FFFFFF" opacity="1.000000" stroke="none" 
	d="
M269.739441,207.649750 
	C266.541107,210.620667 263.447388,213.185150 260.575256,215.977585 
	C255.039154,221.360031 249.555511,226.801102 244.196136,232.358658 
	C241.508041,235.146118 239.611298,234.431244 237.263397,231.873337 
	C233.471329,227.742035 229.247482,224.003937 225.512848,219.825531 
	C224.728256,218.947723 224.584747,216.201645 225.309372,215.471954 
	C232.039963,208.694656 239.024689,202.169708 245.936844,195.572769 
	C266.775513,175.684479 287.654541,155.838272 308.432770,135.887054 
	C316.059723,128.563644 323.587067,121.124031 330.875702,113.466972 
	C333.661530,110.540283 334.956909,110.691605 337.516205,113.815941 
	C341.656158,118.869827 346.523529,123.327873 351.481171,128.448013 
	C335.897858,143.242661 320.587097,157.655945 305.424316,172.223236 
	C297.294495,180.033798 289.427063,188.117249 281.425415,196.061615 
	C277.617401,199.842377 273.772400,203.585907 269.739441,207.649750 
z"/>
<path fill="#FFFFFF" opacity="1.000000" stroke="none" 
	d="
M228.766220,324.732452 
	C246.944214,307.372284 264.864929,290.276428 283.088013,272.892090 
	C288.933289,278.306946 294.901733,283.835938 301.101349,289.579041 
	C263.350342,326.074371 226.719193,361.487122 189.658951,397.314667 
	C183.991852,391.304596 178.305817,385.274475 172.825226,379.462189 
	C191.689041,361.011078 210.098999,343.003906 228.766220,324.732452 
z"/>
<path fill="#FFFFFF" opacity="1.000000" stroke="none" 
	d="
M270.690857,65.805473 
	C262.400574,73.749947 254.388809,81.464676 246.346313,89.147224 
	C232.285385,102.578766 218.122406,115.904739 204.161728,129.439529 
	C194.156006,139.140015 184.432571,149.131210 174.526550,158.935486 
	C172.928375,160.517242 171.034210,161.799927 169.404831,163.117386 
	C163.690735,157.070892 158.247314,151.310852 152.674454,145.413803 
	C189.180267,110.110207 226.005859,74.497368 263.327301,38.405006 
	C269.201202,44.265457 274.884552,49.935783 281.052704,56.089813 
	C277.247375,59.659325 274.101471,62.610279 270.690857,65.805473 
z"/>
<path fill="#FFFFFF" opacity="1.000000" stroke="none" 
	d="
M330.288391,320.787903 
	C332.006653,322.682098 333.461487,324.326935 335.376282,326.491791 
	C327.970886,333.449341 320.475494,340.353088 313.139954,347.422760 
	C305.974854,354.328125 299.061249,361.494965 291.877991,368.380890 
	C282.063507,377.789032 272.018829,386.957397 262.223480,396.385040 
	C254.700775,403.625397 247.463638,411.161591 239.997147,418.461517 
	C235.585678,422.774658 231.007385,426.920105 226.417160,431.044189 
	C225.767654,431.627716 224.106964,432.186707 223.785599,431.870789 
	C218.319183,426.496857 212.990509,420.982849 207.580215,415.447357 
	C244.809311,379.470764 281.592651,343.924957 317.334839,309.385223 
	C321.583923,313.119751 325.804443,316.829163 330.288391,320.787903 
z"/>
<path fill="#FFFFFF" opacity="1.000000" stroke="none" 
	d="
M211.224518,193.266724 
	C210.247314,193.918549 209.366776,194.150650 208.850250,194.715576 
	C204.246124,199.750992 204.340958,199.423782 199.880768,194.110214 
	C196.344589,189.897446 191.722809,186.595947 186.858261,182.240936 
	C224.231308,146.074142 261.037598,110.455826 298.041260,74.646515 
	C303.422333,80.032440 308.623260,85.109924 313.603699,90.395203 
	C314.185944,91.013069 314.054413,93.285835 313.402374,93.931389 
	C307.379364,99.894432 301.144562,105.642723 295.023468,111.507851 
	C291.974091,114.429718 289.079803,117.513290 286.035828,120.441032 
	C261.844208,143.709030 237.629044,166.952530 213.448166,190.231644 
	C212.648117,191.001862 212.136185,192.071350 211.224518,193.266724 
z"/>
<path fill="#FFFFFF" opacity="1.000000" stroke="none" 
	d="
M251.208038,444.294434 
	C285.538574,411.033997 319.618164,378.039551 354.104126,344.651642 
	C359.501862,350.580780 364.885071,356.493958 370.015411,362.129333 
	C364.461426,367.972107 358.327118,374.524902 352.071716,380.959961 
	C349.334167,383.776154 346.300964,386.302338 343.484558,389.044922 
	C329.173737,402.980530 314.912079,416.966614 300.589630,430.890228 
	C289.266663,441.897888 277.876862,452.836700 266.528015,463.817780 
	C265.282257,465.023285 264.297394,466.652435 262.841919,467.434418 
	C261.828552,467.978851 259.749359,467.943268 258.953857,467.245758 
	C255.556961,464.267426 252.579849,460.814636 249.227554,457.780182 
	C243.435516,452.537323 243.408707,450.903351 249.521561,445.947144 
	C250.036392,445.529694 250.480240,445.024719 251.208038,444.294434 
z"/>
</svg>