<?xml version="1.0" standalone="no"?>
<!DOCTYPE svg PUBLIC "-//W3C//DTD SVG 20010904//EN"
 "http://www.w3.org/TR/2001/REC-SVG-20010904/DTD/svg10.dtd">
<svg version="1.0" xmlns="http://www.w3.org/2000/svg"
 width="512.000000pt" height="512.000000pt" viewBox="0 0 512.000000 512.000000"
 preserveAspectRatio="xMidYMid meet">

<g transform="translate(0.000000,512.000000) scale(0.100000,-0.100000)"
fill="#000000" stroke="none">
<path d="M998 5110 c-455 -54 -841 -391 -957 -835 -12 -44 -26 -123 -32 -175
-6 -62 -9 -620 -6 -1610 4 -1661 -1 -1539 62 -1726 116 -346 422 -630 779
-723 156 -41 210 -42 1781 -38 1650 3 1546 0 1729 61 321 108 594 381 702 702
61 183 58 79 61 1729 4 1575 3 1624 -38 1783 -106 403 -426 710 -848 815 -86
21 -94 21 -1626 23 -847 1 -1570 -2 -1607 -6z m1689 -433 c32 -35 67 -66 77
-70 9 -4 15 -11 12 -16 -4 -5 0 -12 6 -14 12 -5 -91 -110 -392 -400 -259 -249
-422 -408 -556 -539 -129 -125 -164 -154 -164 -130 0 5 -35 45 -78 89 l-78 80
25 23 c23 20 377 361 537 517 33 32 162 157 288 278 125 121 233 225 240 232
6 7 14 12 17 13 4 0 33 -28 66 -63z m320 -332 c17 -19 35 -35 42 -35 6 0 11
-4 11 -8 0 -4 18 -28 41 -52 l41 -44 -130 -126 c-72 -69 -243 -234 -379 -367
-136 -132 -268 -259 -293 -283 -25 -23 -103 -99 -173 -167 l-129 -125 -84 87
c-46 47 -82 90 -79 95 5 9 89 90 359 351 71 68 168 162 216 209 48 47 178 173
290 280 111 107 208 200 214 207 16 18 21 16 53 -22z m363 -360 c14 -19 31
-35 38 -35 6 0 12 -5 12 -10 0 -6 19 -29 42 -51 l43 -40 -126 -122 c-69 -67
-235 -228 -369 -357 -262 -253 -327 -315 -500 -484 -87 -85 -114 -106 -121
-95 -5 8 -9 10 -9 5 0 -6 -11 6 -25 25 -14 19 -48 55 -75 80 -28 25 -50 49
-50 54 0 4 17 23 38 43 76 71 704 679 926 895 71 70 135 127 141 127 5 0 21
-16 35 -35z m1020 -1023 l364 -359 -79 -86 c-44 -48 -86 -87 -93 -87 -7 0
-153 138 -325 308 -172 169 -417 410 -546 535 l-234 228 88 89 89 89 185 -179
c102 -99 350 -341 551 -538z m-2340 -220 l364 -359 -79 -86 c-44 -48 -86 -87
-93 -87 -7 0 -153 138 -325 308 -172 169 -417 410 -546 535 l-234 228 88 89
89 89 185 -179 c102 -99 350 -341 551 -538z m2000 -140 l364 -359 -79 -86
c-44 -48 -86 -87 -93 -87 -7 0 -153 138 -325 308 -172 169 -417 410 -546 535
l-234 228 88 89 89 89 185 -179 c102 -99 350 -341 551 -538z m-2340 -220 l364
-359 -79 -86 c-44 -48 -86 -87 -93 -87 -7 0 -153 138 -325 308 -172 169 -417
410 -546 535 l-234 228 88 89 89 89 185 -179 c102 -99 350 -341 551 -538z
m2000 -130 l364 -359 -79 -86 c-44 -48 -86 -87 -93 -87 -7 0 -153 138 -325
308 -172 169 -417 410 -546 535 l-234 228 88 89 89 89 185 -179 c102 -99 350
-341 551 -538z m-2340 -220 l364 -359 -79 -86 c-44 -48 -86 -87 -93 -87 -7 0
-153 138 -325 308 -172 169 -417 410 -546 535 l-234 228 88 89 89 89 185 -179
c102 -99 350 -341 551 -538z m1529 296 c40 -40 77 -80 82 -89 6 -13 -42 -65
-228 -245 -129 -126 -239 -231 -244 -234 -8 -5 -132 -126 -482 -469 l-138
-135 -72 75 c-40 41 -78 82 -85 90 -14 18 -3 30 547 559 111 107 277 268 369
357 92 89 170 163 173 163 3 0 38 -33 78 -72z m384 -397 l61 -64 -139 -134
c-77 -75 -239 -231 -360 -347 -121 -116 -243 -233 -271 -261 -244 -238 -348
-338 -343 -332 4 5 -31 46 -77 92 -46 47 -84 87 -84 90 0 3 50 54 112 113 62
59 135 130 163 157 28 28 156 151 284 275 129 124 304 293 389 376 l155 152
24 -27 c14 -14 52 -55 86 -90z m284 -282 c15 -17 53 -55 83 -85 l55 -55 -131
-127 c-107 -104 -330 -319 -665 -642 -25 -25 -105 -103 -178 -173 l-131 -128
-72 73 c-41 40 -79 80 -86 89 -13 17 -20 9 274 294 22 22 151 146 285 275 134
129 307 297 384 372 77 76 143 138 147 138 4 0 19 -14 35 -31z"/>
</g>
</svg>
